<?xml version="1.0" encoding="UTF-8"?>
<!DOCTYPE svg PUBLIC "-//W3C//DTD SVG 1.1//EN" "http://www.w3.org/Graphics/SVG/1.1/DTD/svg11.dtd">
<!-- Creator: CorelDRAW -->
<svg xmlns="http://www.w3.org/2000/svg" xml:space="preserve" width="1.70666in" height="1.70666in" version="1.1" style="shape-rendering:geometricPrecision; text-rendering:geometricPrecision; image-rendering:optimizeQuality; fill-rule:evenodd; clip-rule:evenodd"
viewBox="0 0 1707 1707"
 xmlns:xlink="http://www.w3.org/1999/xlink">
 <defs>
  <style type="text/css">
   <![CDATA[
    .fil0 {fill:#000002}
   ]]>
  </style>
 </defs>
 <g id="Layer_x0020_1">
  <metadata id="CorelCorpID_0Corel-Layer"/>
  <path class="fil0" d="M1322 1717l-951 0c-51,0 -93,-41 -93,-92l0 -1237c0,-51 42,-92 93,-92l328 0c395,0 715,320 715,715l0 614c0,51 -41,92 -92,92zm-307 -221c8,0 14,-6 14,-14 0,-7 -6,-13 -14,-13l-324 0c-7,0 -13,6 -13,13 0,8 6,14 13,14l324 0zm156 -221c7,0 13,-6 13,-13 0,-8 -6,-14 -13,-14l-635 0c-8,0 -14,6 -14,14 0,7 6,13 14,13l635 0zm-9 -301l-375 0c-10,0 -18,-8 -18,-19l0 -403c0,-10 8,-18 18,-18l11 0c211,0 382,171 382,382l0 39c0,11 -8,19 -18,19z"/>
  <path class="fil0" d="M365 269l0 -72c0,-30 25,-54 55,-54l244 0c30,0 55,24 55,54l0 72c-7,0 -13,0 -20,0l-334 0z"/>
  <path class="fil0" d="M428 116l0 -62c0,-30 24,-54 54,-54l120 0c30,0 54,24 54,54l0 62 -228 0z"/>
 </g>
</svg>
