<?xml version="1.0" encoding="UTF-8"?>
<!DOCTYPE svg PUBLIC "-//W3C//DTD SVG 1.1//EN" "http://www.w3.org/Graphics/SVG/1.1/DTD/svg11.dtd">
<!-- Creator: CorelDRAW -->
<svg xmlns="http://www.w3.org/2000/svg" xml:space="preserve" width="1.70666in" height="1.70666in" version="1.1" style="shape-rendering:geometricPrecision; text-rendering:geometricPrecision; image-rendering:optimizeQuality; fill-rule:evenodd; clip-rule:evenodd"
viewBox="0 0 1706.66 1706.66"
 xmlns:xlink="http://www.w3.org/1999/xlink"
 xmlns:xodm="http://www.corel.com/coreldraw/odm/2003">
 <defs>
  <style type="text/css">
   <![CDATA[
    .fil0 {fill:black}
   ]]>
  </style>
 </defs>
 <g id="Layer_x0020_1">
  <metadata id="CorelCorpID_0Corel-Layer"/>
  <path class="fil0" d="M1236.25 288.34l-117.67 0c-6.8,0 -13.11,-3.44 -16.8,-9.15 -116.85,-180.96 -378.7,-181.57 -496.36,-0.79 -4.17,7.12 -10.1,10.33 -18.35,9.94l-116.63 0c-15,0 -24.27,-14.76 -18.26,-28.18 153.06,-341.93 641.13,-351.72 802.15,-0.41 6.35,13.84 -3.87,28.58 -18.07,28.58z"/>
  <path class="fil0" d="M1239.53 536.84c-49.53,0 -37.57,-59.28 -38.76,-99.44 -3.95,-133.82 -64.71,-157.66 -39.23,-195.59 16.3,-24.28 52.89,-24.15 66.89,3.24 47.13,92.25 49.79,153.21 49.68,253.26 -0.02,21.28 -17.3,38.54 -38.58,38.54zm-772.34 0c-49.12,0 -38.55,-63.39 -38.55,-95.37 0,-66.15 18.36,-137.12 48.11,-196.22 22.76,-45.22 91.78,-10.83 68.87,34.66 -75.81,150.56 -3.74,256.93 -78.44,256.93z"/>
  <path class="fil0" d="M1284.11 774.52c-40.54,0 -83.44,8.24 -83.44,-20l0 -261.99c0,-28.24 42.93,-20 83.44,-20 37.07,0 67.24,30.15 67.24,67.2l0 167.54c-0.01,37.08 -30.17,67.24 -67.24,67.24z"/>
  <path class="fil0" d="M486.02 774.52l-63.46 0c-37.07,0 -67.22,-30.15 -67.22,-67.22l0 -167.54c0,-37.05 30.15,-67.2 67.22,-67.2 40.54,0 83.46,-8.24 83.46,20l0 261.98c0,11.03 -8.96,19.99 -20,19.99z"/>
  <path class="fil0" d="M853.33 1185.91c-233.02,0 -422.83,-217.69 -422.83,-449.68 0,-50.54 76.75,-50.54 76.75,0 0,225.38 212.03,426.72 432.84,359.92 153,-46.3 259.32,-201.93 259.32,-359.92 0,-50.54 76.75,-50.54 76.75,0 0,232 -189.84,449.68 -422.83,449.68z"/>
  <path class="fil0" d="M849.39 446.49c-61.48,74.63 -138.36,134.41 -227.05,173.84 -38.41,17.07 -89.88,34.85 -132.2,39.64 -47.77,5.41 -56.33,-67.08 -8.41,-72.85 37.33,-4.65 -12.06,-221.95 21.46,-237.65 -24.35,-92.46 -13.79,-145.44 90.83,-206.03 16.26,-23.52 466.35,-25.18 477.82,0.98 15.17,34.61 123.85,163.29 150.59,188.96 72.43,69.56 -54.33,230.42 44.65,243.37 46.74,6.11 -4.69,89.13 -51.13,83.15 -146.68,-18.84 -283.07,-90.73 -366.56,-213.41z"/>
  <path class="fil0" d="M1152.84 1053.69l-232.66 0c-48.29,0 -48.28,-73.33 0,-73.33l232.68 0c52.15,0 94.6,-42.43 94.6,-94.58l0 -131.26c0,-48.28 73.33,-48.28 73.33,0l0 131.26c0,92.61 -75.34,167.91 -167.94,167.91z"/>
  <path class="fil0" d="M876.24 1080.78c-37.34,0 -68.97,5.11 -93.07,-19.18 -40.07,-40.4 -10.86,-109.06 45.38,-108.93 37.38,0.09 68.89,-5.22 93.08,19.19 39.99,40.36 11.04,108.92 -45.39,108.92z"/>
  <path class="fil0" d="M853.33 1549.81c-132.28,0 -239.89,-107.62 -239.89,-239.9l0 -232.17c0,-48.29 73.33,-48.28 73.33,0l0 232.15c0,91.83 74.72,166.57 166.56,166.57 91.83,0 166.56,-74.73 166.56,-166.56l0 -232.19c0,-48.29 73.33,-48.28 73.33,0l0 232.18c0,132.28 -107.59,239.92 -239.89,239.92z"/>
  <path class="fil0" d="M1076.56 1299.26l324.15 106.35c0.88,0.24 174.47,51.23 180.06,279.87 0.28,11.34 -9.4,21.2 -20.66,21.2 -129,0 -1405.95,1.99 -1417.76,-1.02 -9.5,-1.7 -16.7,-10.14 -16.45,-20.19 5.59,-228.64 179.18,-279.65 180.93,-280.13l323.29 -106.09 0 10.67c0,123.08 100.14,223.23 223.22,223.23 123.08,0 223.23,-100.15 223.22,-223.25l0 -10.63z"/>
 </g>
</svg>
